<svg xmlns="http://www.w3.org/2000/svg" width="880" height="360" viewBox="0 0 880 360" font-family="Helvetica, Arial, sans-serif">
  <rect width="880" height="360" fill="#ffffff"/>
  <text x="32" y="40" font-size="17" font-weight="600" fill="#0b0b0b">Correctness, scored the HumanEval way</text>
  <text x="32" y="62" font-size="12.5" fill="#52514e">Pass rate on a hidden test suite the model never saw (22 tests, 2 tasks) — blind scoring, HumanEval-style</text>

  <!-- legend -->
  <g font-size="11.5" fill="#0b0b0b">
    <rect x="640" y="30" width="12" height="12" rx="3" fill="#008300"/>
    <text x="658" y="40">codex alone</text>
    <rect x="640" y="50" width="12" height="12" rx="3" fill="#2a78d6"/>
    <text x="658" y="60">maestro</text>
  </g>

  <!-- gridlines: 0/50/100% ; baseline y=260, 100% = 150px -->
  <g stroke="#e8e7e4" stroke-width="1">
    <line x1="120" y1="185" x2="800" y2="185"/>
  </g>
  <line x1="120" y1="110" x2="800" y2="110" stroke="#e8e7e4"/>
  <line x1="120" y1="260" x2="800" y2="260" stroke="#d6d5d1"/>
  <g font-size="10.5" fill="#52514e" text-anchor="end">
    <text x="112" y="264">0%</text>
    <text x="112" y="189">50%</text>
    <text x="112" y="114">100%</text>
  </g>

  <!-- bars: 100% = 150px tall, w=90 -->
  <g fill="#008300">
    <path d="M170 260 v-146 a4 4 0 0 1 4 -4 h82 a4 4 0 0 1 4 4 v146 z"/>
    <path d="M490 260 v-146 a4 4 0 0 1 4 -4 h82 a4 4 0 0 1 4 4 v146 z"/>
  </g>
  <g fill="#2a78d6">
    <path d="M290 260 v-146 a4 4 0 0 1 4 -4 h82 a4 4 0 0 1 4 4 v146 z"/>
    <path d="M610 260 v-146 a4 4 0 0 1 4 -4 h82 a4 4 0 0 1 4 4 v146 z"/>
  </g>

  <!-- direct labels -->
  <g font-size="12" font-weight="600" fill="#ffffff" text-anchor="middle">
    <text x="215" y="200">12/12</text>
    <text x="335" y="200">12/12</text>
    <text x="535" y="200">10/10</text>
    <text x="655" y="200">10/10</text>
  </g>

  <!-- x labels -->
  <g font-size="12" fill="#0b0b0b" text-anchor="middle">
    <text x="275" y="284">LRU cache with TTL (clear spec)</text>
    <text x="595" y="284">debounce, lodash semantics (vague spec)</text>
  </g>

  <text x="32" y="316" font-size="11.5" font-weight="600" fill="#0b0b0b">Quality tied at 100% — but maestro's result arrives already verified; codex alone hands you an unchecked claim.</text>
  <text x="32" y="336" font-size="11" fill="#52514e">Method: hidden suite written before either run; same model both arms; auto-scored. n=1 per cell.</text>
</svg>
