<svg xmlns="http://www.w3.org/2000/svg" width="880" height="330" viewBox="0 0 880 330" font-family="Helvetica, Arial, sans-serif">
  <rect width="880" height="330" fill="#ffffff"/>
  <text x="32" y="40" font-size="17" font-weight="600" fill="#0b0b0b">It thinks harder only when the task deserves it</text>
  <text x="32" y="62" font-size="12.5" fill="#52514e">Hidden "thinking" tokens per task — the budget maestro requested, matched to difficulty</text>

  <!-- legend (2 series) -->
  <g font-size="11.5" fill="#0b0b0b">
    <rect x="600" y="30" width="12" height="12" rx="3" fill="#86b6ef"/>
    <text x="618" y="40">simple task · low effort</text>
    <rect x="600" y="50" width="12" height="12" rx="3" fill="#1c5cab"/>
    <text x="618" y="60">standard task · medium effort</text>
  </g>

  <!-- gridlines: 0 / 1000 / 2000 / 3000 ; baseline y=250, 3000 = 160px -->
  <g stroke="#e8e7e4" stroke-width="1">
    <line x1="120" y1="196.7" x2="820" y2="196.7"/>
    <line x1="120" y1="143.3" x2="820" y2="143.3"/>
    <line x1="120" y1="90" x2="820" y2="90"/>
  </g>
  <line x1="120" y1="250" x2="820" y2="250" stroke="#d6d5d1" stroke-width="1"/>
  <g font-size="10.5" fill="#52514e" text-anchor="end">
    <text x="112" y="254">0</text>
    <text x="112" y="200.7">1,000</text>
    <text x="112" y="147.3">2,000</text>
    <text x="112" y="94">3,000</text>
  </g>

  <!-- bars: h = v/3000*160, w=72, rounded top data-end; low group then medium group -->
  <!-- clamp 588 -> 31.4 ; parse-duration 521 -> 27.8 | slugify 1534 -> 81.8 ; stats 967 -> 51.6 ; truncate 2672 -> 142.5 -->
  <g fill="#86b6ef">
    <path d="M158 250 v-27.4 a4 4 0 0 1 4 -4 h64 a4 4 0 0 1 4 4 v27.4 z"/>
    <path d="M268 250 v-23.8 a4 4 0 0 1 4 -4 h64 a4 4 0 0 1 4 4 v23.8 z"/>
  </g>
  <g fill="#1c5cab">
    <path d="M448 250 v-77.8 a4 4 0 0 1 4 -4 h64 a4 4 0 0 1 4 4 v77.8 z"/>
    <path d="M558 250 v-47.6 a4 4 0 0 1 4 -4 h64 a4 4 0 0 1 4 4 v47.6 z"/>
    <path d="M668 250 v-138.5 a4 4 0 0 1 4 -4 h64 a4 4 0 0 1 4 4 v138.5 z"/>
  </g>

  <!-- direct value labels -->
  <g font-size="11" fill="#52514e" text-anchor="middle">
    <text x="194" y="212">588</text>
    <text x="304" y="216">521</text>
    <text x="484" y="162">1,534</text>
    <text x="594" y="192">967</text>
    <text x="704" y="101">2,672</text>
  </g>

  <!-- x labels -->
  <g font-size="12" fill="#0b0b0b" text-anchor="middle">
    <text x="194" y="272">clamp</text>
    <text x="304" y="272">parse-duration</text>
    <text x="484" y="272">slugify</text>
    <text x="594" y="272">stats</text>
    <text x="704" y="272">truncate</text>
  </g>

  <!-- group separator note -->
  <g font-size="11" fill="#52514e" text-anchor="middle">
    <text x="249" y="296">simple utilities → little thinking</text>
    <text x="594" y="296">features with edge cases → 2–5× more thinking</text>
  </g>

  <text x="32" y="318" font-size="11" fill="#52514e">Same model for all five tasks; only the per-task effort request differs. Source: Codex session usage, July 2026.</text>
</svg>
